<svg width="103" height="13" viewBox="0 0 103 13" fill="none" xmlns="http://www.w3.org/2000/svg">
<g clip-path="url(#clip0_3_251)">
<path d="M30.1119 5.5729H22.6677V3.09724H32.0391V0.621582H22.6505C21.9985 0.621582 21.3732 0.880598 20.9121 1.34165C20.4511 1.8027 20.1921 2.42802 20.1921 3.08005V5.59009C20.1921 6.24212 20.4511 6.86744 20.9121 7.32849C21.3732 7.78954 21.9985 8.04856 22.6505 8.04856H30.0947V10.5242H20.3692V12.9999H30.1119C30.7639 12.9999 31.3892 12.7409 31.8503 12.2798C32.3114 11.8188 32.5704 11.1934 32.5704 10.5414V8.03136C32.5704 7.37934 32.3114 6.75402 31.8503 6.29297C31.3892 5.83191 30.7639 5.5729 30.1119 5.5729Z" fill="white"/>
<path d="M44.5274 0.621582H37.0557C36.733 0.621582 36.4134 0.685184 36.1152 0.808755C35.817 0.932326 35.5461 1.11344 35.318 1.34175C35.0898 1.57007 34.9089 1.8411 34.7855 2.13936C34.6622 2.43763 34.5988 2.75728 34.599 3.08005V10.5414C34.5988 10.8642 34.6622 11.1838 34.7855 11.4821C34.9089 11.7804 35.0898 12.0514 35.318 12.2797C35.5461 12.508 35.817 12.6891 36.1152 12.8127C36.4134 12.9363 36.733 12.9999 37.0557 12.9999H44.5274C45.1794 12.9999 45.8048 12.7409 46.2658 12.2798C46.7269 11.8188 46.9859 11.1934 46.9859 10.5414V3.08005C46.9859 2.42802 46.7269 1.8027 46.2658 1.34165C45.8048 0.880598 45.1794 0.621582 44.5274 0.621582V0.621582ZM44.5102 10.5242H37.0833V3.09724H44.5102V10.5242Z" fill="white"/>
<path d="M70.6766 0.621583H63.3906C62.7386 0.621583 62.1132 0.880599 61.6522 1.34165C61.1911 1.8027 60.9321 2.42802 60.9321 3.08005V12.9999H63.4078V8.93223H70.6594V12.9999H73.1351V3.08005C73.1353 2.75713 73.0718 2.43734 72.9484 2.13897C72.8249 1.84059 72.6438 1.56948 72.4155 1.34115C72.1872 1.11281 71.916 0.931731 71.6177 0.808262C71.3193 0.684792 70.9995 0.621357 70.6766 0.621583ZM70.6594 6.45657H63.4078V3.09724H70.6594V6.45657Z" fill="white"/>
<path d="M99.6625 0.621587H92.3782C92.0549 0.620909 91.7346 0.683999 91.4358 0.807245C91.1369 0.93049 90.8653 1.11147 90.6364 1.33983C90.4076 1.56819 90.2261 1.83943 90.1022 2.13805C89.9783 2.43666 89.9146 2.75677 89.9146 3.08005V12.9999H92.3902V8.93223H99.6453V12.9999H102.121V3.08005C102.121 2.42803 101.862 1.80271 101.401 1.34166C100.94 0.880604 100.314 0.621587 99.6625 0.621587ZM99.6453 6.45657H92.3954V3.09724H99.6453V6.45657Z" fill="white"/>
<path d="M85.24 10.5242H84.2497L80.7013 1.65311C80.5799 1.34873 80.37 1.08775 80.0988 0.903865C79.8276 0.719983 79.5075 0.621655 79.1798 0.621582L76.9757 0.621582C76.5412 0.621582 76.1245 0.794199 75.8172 1.10146C75.51 1.40872 75.3373 1.82545 75.3373 2.25999V12.9999H77.813V3.09724H78.8033L82.35 11.9683C82.4709 12.2727 82.6804 12.5338 82.9513 12.7177C83.2223 12.9016 83.5423 12.9999 83.8698 12.9999H86.0738C86.5083 12.9999 86.9251 12.8273 87.2323 12.52C87.5396 12.2127 87.7122 11.796 87.7122 11.3615V0.621582H85.2365L85.24 10.5242Z" fill="white"/>
<path d="M51.6553 0.621582H49.1796V10.5414C49.1796 11.1934 49.4386 11.8188 49.8997 12.2798C50.3607 12.7409 50.9861 12.9999 51.6381 12.9999H59.0823V10.5242H51.6553V0.621582Z" fill="white"/>
<path fill-rule="evenodd" clip-rule="evenodd" d="M2.62004 10.06C2.66399 10.0124 2.7171 9.97418 2.77618 9.9476C2.83526 9.92101 2.8991 9.90662 2.96388 9.9053H13.7674C13.8131 9.90594 13.8576 9.91978 13.8957 9.94514C13.9337 9.97051 13.9636 10.0063 13.9818 10.0483C13.9999 10.0902 14.0056 10.1365 13.998 10.1816C13.9905 10.2267 13.9701 10.2687 13.9393 10.3024L11.6493 12.8451C11.6054 12.8927 11.5523 12.931 11.4932 12.9576C11.4341 12.9842 11.3702 12.9985 11.3055 12.9999H0.495099C0.449389 12.9992 0.404838 12.9854 0.366805 12.96C0.328772 12.9347 0.298877 12.8988 0.280716 12.8569C0.262554 12.8149 0.2569 12.7686 0.264433 12.7235C0.271967 12.6785 0.292366 12.6365 0.323179 12.6027L2.62004 10.06ZM13.9496 7.95228C13.9804 7.98605 14.0008 8.028 14.0084 8.07309C14.0159 8.11818 14.0102 8.16449 13.9921 8.20644C13.9739 8.24839 13.944 8.28421 13.906 8.30957C13.868 8.33494 13.8234 8.34877 13.7777 8.34942L2.97076 8.35801C2.90598 8.35669 2.84214 8.3423 2.78306 8.31571C2.72397 8.28913 2.67087 8.25089 2.62692 8.20328L0.31974 5.66917C0.288928 5.6354 0.268528 5.59345 0.260995 5.54836C0.253462 5.50327 0.259116 5.45696 0.277277 5.41501C0.295439 5.37306 0.325334 5.33724 0.363367 5.31188C0.401399 5.28652 0.445951 5.27268 0.491661 5.27204L11.2986 5.26344C11.3634 5.26476 11.4272 5.27915 11.4863 5.30574C11.5454 5.33233 11.5985 5.37057 11.6424 5.41817L13.9496 7.95228ZM2.62004 0.776311C2.66399 0.728708 2.7171 0.690468 2.77618 0.66388C2.83526 0.637293 2.8991 0.622906 2.96388 0.621582L13.7743 0.630178C13.82 0.630822 13.8645 0.644658 13.9025 0.670022C13.9406 0.695387 13.9705 0.731199 13.9886 0.773152C14.0068 0.815104 14.0125 0.861411 14.0049 0.906501C13.9974 0.951591 13.977 0.993544 13.9462 1.02731L11.6493 3.56143C11.6054 3.60903 11.5523 3.64727 11.4932 3.67386C11.4341 3.70044 11.3702 3.71483 11.3055 3.71615H0.495099C0.449389 3.71551 0.404838 3.70167 0.366805 3.67631C0.328772 3.65095 0.298877 3.61513 0.280716 3.57318C0.262554 3.53123 0.2569 3.48492 0.264433 3.43983C0.271967 3.39474 0.292366 3.35279 0.323179 3.31902L2.62004 0.776311Z" fill="white"/>
</g>
<defs>
<clipPath id="clip0_3_251">
<rect width="102.121" height="12.3783" fill="white" transform="translate(0 0.621704)"/>
</clipPath>
</defs>
</svg>
