<svg width="15" height="14" viewBox="0 0 15 14" fill="none" xmlns="http://www.w3.org/2000/svg">
<path fill-rule="evenodd" clip-rule="evenodd" d="M2.50782 10.0199C2.55448 9.96939 2.61086 9.9288 2.67358 9.90057C2.73631 9.87235 2.80408 9.85707 2.87285 9.85567H14.3419C14.3905 9.85635 14.4377 9.87104 14.4781 9.89797C14.5185 9.92489 14.5502 9.96291 14.5695 10.0075C14.5888 10.052 14.5948 10.1011 14.5868 10.149C14.5788 10.1969 14.5571 10.2414 14.5244 10.2773L12.0934 12.9766C12.0467 13.0272 11.9903 13.0678 11.9276 13.096C11.8649 13.1242 11.7971 13.1395 11.7283 13.1409H0.251971C0.203444 13.1402 0.156148 13.1255 0.115772 13.0986C0.075396 13.0717 0.0436591 13.0336 0.0243789 12.9891C0.0050987 12.9446 -0.00090373 12.8954 0.00709359 12.8475C0.0150909 12.7997 0.0367474 12.7551 0.0694581 12.7193L2.50782 10.0199ZM14.5354 7.78233C14.5681 7.81818 14.5898 7.86272 14.5978 7.91058C14.6058 7.95845 14.5997 8.00761 14.5805 8.05215C14.5612 8.09669 14.5295 8.1347 14.4891 8.16163C14.4487 8.18856 14.4014 8.20325 14.3529 8.20393L2.88015 8.21306C2.81138 8.21165 2.74361 8.19638 2.68088 8.16815C2.61816 8.13993 2.56178 8.09933 2.51512 8.0488L0.0658079 5.35856C0.0330972 5.32271 0.0114407 5.27817 0.00344335 5.23031C-0.00455397 5.18244 0.00144846 5.13328 0.0207287 5.08874C0.0400089 5.0442 0.0717457 5.00619 0.112122 4.97926C0.152498 4.95233 0.199794 4.93764 0.24832 4.93696L11.721 4.92783C11.7898 4.92924 11.8576 4.94451 11.9203 4.97274C11.983 5.00096 12.0394 5.04156 12.0861 5.09209L14.5354 7.78233ZM2.50782 0.164261C2.55448 0.113726 2.61086 0.0731296 2.67358 0.0449044C2.73631 0.0166792 2.80408 0.001406 2.87285 0L14.3492 0.00912562C14.3978 0.00980906 14.445 0.0244977 14.4854 0.0514248C14.5258 0.0783518 14.5575 0.11637 14.5768 0.160908C14.5961 0.205445 14.6021 0.254604 14.5941 0.302472C14.5861 0.35034 14.5644 0.394878 14.5317 0.430729L12.0934 3.12096C12.0467 3.1715 11.9903 3.21209 11.9276 3.24032C11.8649 3.26854 11.7971 3.28382 11.7283 3.28522H0.251971C0.203444 3.28454 0.156148 3.26985 0.115772 3.24292C0.075396 3.216 0.0436591 3.17798 0.0243789 3.13344C0.0050987 3.0889 -0.00090373 3.03974 0.00709359 2.99188C0.0150909 2.94401 0.0367474 2.89947 0.0694581 2.86362L2.50782 0.164261Z" fill="white"/>
</svg>
